<?xml version="1.0" encoding="iso-8859-1"?>
<!-- Generator: Adobe Illustrator 19.0.0, SVG Export Plug-In . SVG Version: 6.00 Build 0)  -->
<svg version="1.1" id="Capa_1" xmlns="http://www.w3.org/2000/svg" xmlns:xlink="http://www.w3.org/1999/xlink" x="0px" y="0px"
	 viewBox="0 0 512 512" style="enable-background:new 0 0 512 512;" xml:space="preserve">
<g>
	<g>
		<path fill="#ff6f56" d="M256,232.5c-39.977,0-72.5,32.523-72.5,72.5h30c0-23.435,19.065-42.5,42.5-42.5s42.5,19.065,42.5,42.5h30
			C328.5,265.023,295.977,232.5,256,232.5z"/>
	</g>
</g>
<g>
	<g>
		<rect fill="#ff6f56" x="183.5" y="157.5" width="30" height="60"/>
	</g>
</g>
<g>
	<g>
		<rect fill="#ff6f56" x="298.5" y="157.5" width="30" height="60"/>
	</g>
</g>
<g>
	<g>
		<path fill="#ff6f56" d="M256,0C152.613,0,68.5,84.112,68.5,187.5v324.361l71.483-58.377L198.5,512l57.5-57.5l57.5,57.5l58.517-58.517
			L443.5,511.86V187.5C443.5,84.112,359.388,0,256,0z M413.5,448.629l-43.517-35.539L313.5,469.574l-57.5-57.5l-57.5,57.5
			l-56.483-56.483L98.5,448.629V187.5C98.5,100.654,169.155,30,256,30s157.5,70.654,157.5,157.5V448.629z"/>
	</g>
</g>
</svg>
